<?xml version="1.0" encoding="iso-8859-1"?>
<svg fill="#000000" height="800px" width="800px" version="1.1" id="Layer_1" xmlns="http://www.w3.org/2000/svg" xmlns:xlink="http://www.w3.org/1999/xlink"
	 viewBox="0 0 512 512" xml:space="preserve">
<g transform="translate(1 1)">
	<g>
		<g>
			<path d="M468.333,186.716c-5.12,0-8.533,3.413-8.533,8.533v8.533c0,5.12,3.413,8.533,8.533,8.533s8.533-3.413,8.533-8.533v-8.533
				C476.867,190.129,473.453,186.716,468.333,186.716z"/>
			<path d="M468.333,117.596c-5.12,0-8.533,3.413-8.533,8.533v19.627c0,5.12,3.413,8.533,8.533,8.533s8.533-4.267,8.533-8.533
				v-19.627C476.867,121.009,473.453,117.596,468.333,117.596z"/>
			<path d="M459.8,75.783c0,5.12,3.413,8.533,8.533,8.533s8.533-3.413,8.533-8.533V58.716H459.8c-5.12,0-8.533,3.413-8.533,8.533
				S454.68,75.783,459.8,75.783z"/>
			<path d="M155.16,75.783h17.067c4.267,0,8.533-3.413,8.533-8.533s-3.413-8.533-8.533-8.533H155.16
				c-5.12,0-8.533,3.413-8.533,8.533S150.04,75.783,155.16,75.783z"/>
			<path d="M215.747,75.783h17.067c5.12,0,8.533-3.413,8.533-8.533s-3.413-8.533-8.533-8.533h-17.067
				c-5.12,0-8.533,3.413-8.533,8.533S210.627,75.783,215.747,75.783z"/>
			<path d="M93.72,75.783h17.067c5.12,0,8.533-3.413,8.533-8.533s-3.413-8.533-8.533-8.533H93.72c-5.12,0-8.533,3.413-8.533,8.533
				S88.6,75.783,93.72,75.783z"/>
			<path d="M337.773,75.783h17.067c5.12,0,8.533-3.413,8.533-8.533s-3.413-8.533-8.533-8.533h-17.067
				c-5.12,0-8.533,3.413-8.533,8.533S332.653,75.783,337.773,75.783z"/>
			<path d="M277.187,75.783h17.067c4.267,0,8.533-3.413,8.533-8.533s-3.413-8.533-8.533-8.533h-17.067
				c-5.12,0-8.533,3.413-8.533,8.533S272.067,75.783,277.187,75.783z"/>
			<path d="M399.213,75.783h17.067c4.267,0,8.533-3.413,8.533-8.533s-3.413-8.533-8.533-8.533h-17.067
				c-5.12,0-8.533,3.413-8.533,8.533S394.093,75.783,399.213,75.783z"/>
			<path d="M41.667,84.316c5.12,0,8.533-3.413,8.533-8.533c5.12,0,8.533-3.413,8.533-8.533s-3.413-8.533-8.533-8.533H33.133v17.067
				C33.133,80.903,36.547,84.316,41.667,84.316z"/>
			<path d="M41.667,268.636c5.12,0,8.533-3.413,8.533-8.533v-17.92c0-5.12-3.413-8.533-8.533-8.533s-8.533,3.413-8.533,8.533v17.92
				C33.133,265.223,36.547,268.636,41.667,268.636z"/>
			<path d="M41.667,207.196c5.12,0,8.533-3.413,8.533-8.533v-17.92c0-5.12-3.413-8.533-8.533-8.533s-8.533,3.413-8.533,8.533v17.92
				C33.133,203.783,36.547,207.196,41.667,207.196z"/>
			<path d="M41.667,145.756c5.12,0,8.533-3.413,8.533-8.533v-17.92c0-5.12-3.413-8.533-8.533-8.533s-8.533,3.413-8.533,8.533v17.92
				C33.133,142.343,36.547,145.756,41.667,145.756z"/>
			<path d="M41.667,330.929c5.12,0,8.533-4.267,8.533-8.533v-17.92c0-5.12-3.413-8.533-8.533-8.533s-8.533,3.413-8.533,8.533v17.92
				C33.133,327.516,36.547,330.929,41.667,330.929z"/>
			<path d="M58.733,374.449c0-5.12-3.413-8.533-8.533-8.533c0-5.12-3.413-8.533-8.533-8.533s-8.533,3.413-8.533,8.533v17.067H50.2
				C55.32,382.983,58.733,379.569,58.733,374.449z"/>
			<path d="M169.667,365.916H152.6c-5.12,0-8.533,3.413-8.533,8.533s3.413,8.533,8.533,8.533h17.067c5.12,0,8.533-3.413,8.533-8.533
				S174.787,365.916,169.667,365.916z"/>
			<path d="M92.867,382.983h17.067c5.12,0,8.533-3.413,8.533-8.533s-3.413-8.533-8.533-8.533H92.867
				c-5.12,0-8.533,3.413-8.533,8.533S87.747,382.983,92.867,382.983z"/>
			<path d="M229.4,365.916h-17.067c-5.12,0-8.533,3.413-8.533,8.533s3.413,8.533,8.533,8.533H229.4c5.12,0,8.533-3.413,8.533-8.533
				S234.52,365.916,229.4,365.916z"/>
			<path d="M280.6,365.916h-8.533c-5.12,0-8.533,3.413-8.533,8.533s3.413,8.533,8.533,8.533h8.533c5.12,0,8.533-3.413,8.533-8.533
				S285.72,365.916,280.6,365.916z"/>
			<path d="M511,24.583H-1v392.533h324.267v59.733c0,3.413,1.707,6.827,5.12,7.68c3.413,1.707,6.827,0.853,9.387-1.707L383,437.596
				l45.227,45.227c1.707,1.707,3.413,2.56,5.973,2.56c0.853,0,2.56,0,3.413-0.853c3.413-0.853,5.12-4.267,5.12-7.68v-59.733H511
				V24.583z M425.667,456.369l-36.693-36.693c-1.707-1.707-3.413-2.56-5.973-2.56s-4.267,0.853-5.973,2.56l-36.693,36.693v-39.253
				v-53.76c25.6,15.36,59.733,15.36,85.333,0v53.76V456.369z M397.229,355.87c-0.39,0.082-0.779,0.162-1.17,0.237
				c-0.566,0.111-1.136,0.21-1.707,0.307c-0.575,0.096-1.15,0.191-1.726,0.272c-0.451,0.064-0.905,0.119-1.359,0.174
				c-0.618,0.076-1.237,0.151-1.856,0.21c-0.53,0.05-1.064,0.085-1.597,0.122c-0.526,0.038-1.052,0.082-1.577,0.108
				c-1.073,0.051-2.151,0.083-3.237,0.083c-1.08,0-2.152-0.032-3.219-0.082c-0.602-0.029-1.203-0.078-1.804-0.124
				c-0.424-0.031-0.849-0.058-1.27-0.097c-0.833-0.079-1.664-0.175-2.494-0.285c-0.147-0.019-0.294-0.036-0.44-0.056
				c-1.968-0.274-3.926-0.632-5.868-1.079c-0.992-0.228-1.981-0.479-2.964-0.751c-1.967-0.545-3.913-1.178-5.833-1.898
				c-1.92-0.72-3.813-1.527-5.673-2.418c-0.643-0.308-1.275-0.64-1.91-0.968c-0.324-0.17-0.656-0.327-0.977-0.502
				c-0.028-0.015-0.056-0.032-0.084-0.048c-21.239-11.607-35.729-34.171-35.729-59.957c0-37.547,30.72-68.267,68.267-68.267
				s68.267,30.72,68.267,68.267C451.267,321.786,428.005,349.277,397.229,355.87z M493.933,400.049h-51.2v-50.158
				c15.773-15.507,25.6-37.045,25.6-60.775c0-46.933-38.4-85.333-85.333-85.333c-46.933,0-85.333,38.4-85.333,85.333
				c0,23.73,9.827,45.269,25.6,60.775v50.158h-307.2v-358.4h477.867V400.049z"/>
			<path d="M400.067,135.516H109.933c-5.12,0-8.533,3.413-8.533,8.533s3.413,8.533,8.533,8.533h290.133
				c5.12,0,8.533-3.413,8.533-8.533S405.187,135.516,400.067,135.516z"/>
			<path d="M297.667,186.716H109.933c-5.12,0-8.533,3.413-8.533,8.533s3.413,8.533,8.533,8.533h187.733
				c5.12,0,8.533-3.413,8.533-8.533S302.787,186.716,297.667,186.716z"/>
			<path d="M109.933,254.983h162.133c5.12,0,8.533-3.413,8.533-8.533s-3.413-8.533-8.533-8.533H109.933
				c-5.12,0-8.533,3.413-8.533,8.533S104.813,254.983,109.933,254.983z"/>
			<path d="M109.933,314.716h162.133c5.12,0,8.533-3.413,8.533-8.533s-3.413-8.533-8.533-8.533H109.933
				c-5.12,0-8.533,3.413-8.533,8.533S104.813,314.716,109.933,314.716z"/>
		</g>
	</g>
</g>
</svg>
