<svg xmlns="http://www.w3.org/2000/svg" viewBox="0 0 266.6 257.1"><title>logolowercase</title><g id="Layer_2" data-name="Layer 2"><g id="Layer_1-2" data-name="Layer 1"><polygon points="135.6 241.1 15.4 197 17.1 192.3 130.6 233.9 130.6 110.7 15.4 68.5 17.1 63.8 135.6 107.2 135.6 241.1" style="fill:#60cbed"/><rect x="72.2" y="87.6" width="5" height="132.87" style="fill:#60cbed"/><rect x="72.2" y="89.6" width="5" height="124.5" transform="translate(-93.6 169.7) rotate(-69.9)" style="fill:#60cbed"/><polygon points="130.6 243.7 130.6 107.2 249.2 66.4 250.8 71.1 135.6 110.8 135.6 236.6 249.2 194.9 250.9 199.6 130.6 243.7" style="fill:#60cbed"/><rect x="189.1" y="90.2" width="5" height="132.87" style="fill:#60cbed"/><rect x="129.3" y="152" width="124.5" height="5" transform="translate(-41.4 75.4) rotate(-20.1)" style="fill:#60cbed"/><path d="M133.1,111.6,9,66.1,133.2,20.6l.9.3L257.3,68.9ZM23.5,66.1l109.7,40.2L242.8,68.6,133.1,26Z" style="fill:#60cbed"/><rect x="133.3" y="6.6" width="5" height="119.66" transform="translate(24.7 168.9) rotate(-68.7)" style="fill:#60cbed"/><rect x="70.8" y="63.6" width="123.9" height="5" transform="translate(-14.7 50) rotate(-20.2)" style="fill:#60cbed"/><circle cx="74.7" cy="87.6" r="10.7" style="fill:#f37321"/><circle cx="133" cy="15.3" r="15.3" style="fill:#60cbed"/><circle cx="133.3" cy="59.5" r="14.9" style="fill:#60cbed"/><circle cx="191.6" cy="44.7" r="10.7" style="fill:#f37321"/><circle cx="80" cy="44.7" r="10.7" style="fill:#f37321"/><circle cx="135.4" cy="106.3" r="17.9" style="fill:#60cbed"/><rect x="13.7" y="66.1" width="5" height="128.52" style="fill:#60cbed"/><rect x="247.5" y="61.3" width="5" height="128.52" style="fill:#60cbed"/><circle cx="16.2" cy="66.1" r="15.1" style="fill:#60cbed"/><circle cx="250" cy="66.4" r="16.5" style="fill:#60cbed"/><circle cx="191.6" cy="87.6" r="10.7" style="fill:#f37321"/><circle cx="16.2" cy="130.4" r="10.7" style="fill:#f37321"/><circle cx="72.3" cy="153.1" r="15" style="fill:#60cbed"/><circle cx="133.1" cy="173.2" r="10.7" style="fill:#f37321"/><circle cx="250" cy="130.4" r="10.7" style="fill:#f37321"/><circle cx="190.9" cy="155.1" r="15" style="fill:#60cbed"/><circle cx="16.2" cy="195.3" r="16.2" style="fill:#60cbed"/><circle cx="74.7" cy="216.1" r="10.7" style="fill:#f37321"/><circle cx="133" cy="240.1" r="16.9" style="fill:#60cbed"/><circle cx="250" cy="198" r="16.2" style="fill:#60cbed"/><circle cx="191.6" cy="216.1" r="10.7" style="fill:#f37321"/><path d="M56,120.7q-3.5,3.6-10.1,3.6t-10.1-3.6Q31,116.3,31,108t4.7-12.8q3.5-3.6,10.1-3.6T56,95.2q4.7,4.3,4.7,12.8T56,120.7ZM52,116q2.3-2.8,2.3-8.1T52,99.9a7.4,7.4,0,0,0-6.1-2.8,7.5,7.5,0,0,0-6.1,2.8q-2.3,2.8-2.3,8.1t2.3,8.1a7.5,7.5,0,0,0,6.1,2.8A7.4,7.4,0,0,0,52,116Z" style="fill:#6d6e71"/><path d="M115.1,121.8q2.8,3,2.8,8.7t-2.7,9.2a8.9,8.9,0,0,1-7,3.2,7.4,7.4,0,0,1-4.6-1.4,8.8,8.8,0,0,1-1.9-2.2v11.9H95.7V119.3h5.7v3.4a9.6,9.6,0,0,1,2.1-2.4,7.6,7.6,0,0,1,4.8-1.5A9.1,9.1,0,0,1,115.1,121.8Zm-4.6,4.3a4.3,4.3,0,0,0-4-2,4.5,4.5,0,0,0-4.5,3.1,11.6,11.6,0,0,0-.6,4.2q0,4,2.1,5.6a4.9,4.9,0,0,0,3,.9,4.4,4.4,0,0,0,3.9-1.9,10.1,10.1,0,0,0,.1-9.8Z" style="fill:#6d6e71"/><path d="M169.8,119.8a9.3,9.3,0,0,1,4,3.4,11.2,11.2,0,0,1,1.8,4.7,29.1,29.1,0,0,1,.2,4.5H159.1q.1,3.4,2.4,4.8a6.1,6.1,0,0,0,3.3.9,4.6,4.6,0,0,0,4.6-2.6h6.1a7.5,7.5,0,0,1-2.2,4.1q-3.1,3.3-8.6,3.3a12.5,12.5,0,0,1-8.1-2.8q-3.5-2.8-3.5-9.2t3.2-9.1a11,11,0,0,1,8.2-3.2A13,13,0,0,1,169.8,119.8Zm-9,5.2a6.2,6.2,0,0,0-1.6,3.5h10.3a5,5,0,0,0-1.6-3.6,5.2,5.2,0,0,0-3.5-1.2A4.7,4.7,0,0,0,160.8,125Z" style="fill:#6d6e71"/><path d="M228.8,104.8q2.2,1.9,2.2,6.2v15.4h-6.1V112.4a6.4,6.4,0,0,0-.5-2.8,3.4,3.4,0,0,0-3.3-1.8,4.1,4.1,0,0,0-4.1,2.6,8.9,8.9,0,0,0-.6,3.5v12.4h-6V103.5h5.8v3.3a10.1,10.1,0,0,1,2.2-2.5,7.5,7.5,0,0,1,4.7-1.4A8.8,8.8,0,0,1,228.8,104.8Z" style="fill:#6d6e71"/><path d="M37.8,183.8A6.3,6.3,0,0,0,39,187q1.6,1.9,5.5,1.9a11.9,11.9,0,0,0,3.8-.5,3.6,3.6,0,0,0,2.8-3.6,2.6,2.6,0,0,0-1.4-2.4,14.7,14.7,0,0,0-4.3-1.4l-3.4-.7q-4.9-1.1-6.8-2.4t-3.1-6.7a8.9,8.9,0,0,1,3.1-6.9q3.1-2.8,9-2.8a13.8,13.8,0,0,1,8.4,2.6,9.2,9.2,0,0,1,3.7,7.5H50.1a4.4,4.4,0,0,0-2.5-4,8.6,8.6,0,0,0-3.9-.8,7.3,7.3,0,0,0-4.1,1,3.2,3.2,0,0,0-1.5,2.8,2.7,2.7,0,0,0,1.5,2.5,18.7,18.7,0,0,0,4.1,1.3l5.4,1.3a13.8,13.8,0,0,1,5.4,2.2,7.6,7.6,0,0,1,2.8,6.3,8.9,8.9,0,0,1-3.3,7q-3.3,2.8-9.3,2.8t-9.6-2.8a9.1,9.1,0,0,1-3.5-7.6Z" style="fill:#6d6e71"/><path d="M101.1,180.2h7.3l10.9,30.9h-7l-2-6.4H98.9l-2.1,6.4H90.1Zm-.4,19.3h7.9l-3.9-12.2Z" style="fill:#6d6e71"/><path d="M151.3,182h6.5v25.4h15.5V213H151.3Z" style="fill:#6d6e71"/><path d="M232.3,166.3v5.5H223v25.5h-6.5V171.8h-9.3v-5.5Z" style="fill:#6d6e71"/></g></g></svg>