<?xml version="1.0" standalone="no"?>
<!DOCTYPE svg PUBLIC "-//W3C//DTD SVG 20010904//EN"
 "http://www.w3.org/TR/2001/REC-SVG-20010904/DTD/svg10.dtd">
<svg version="1.0" xmlns="http://www.w3.org/2000/svg"
 width="16.000000pt" height="16.000000pt" viewBox="0 0 16.000000 16.000000"
 preserveAspectRatio="xMidYMid meet">
<metadata>
Created by potrace 1.11, written by Peter Selinger 2001-2013
</metadata>
<g transform="translate(0.000000,16.000000) scale(0.005970,-0.005970)"
fill="#000000" stroke="none">
<path d="M1263 2606 c-69 -39 -100 -138 -64 -204 7 -13 11 -25 9 -28 -2 -2
-76 -30 -163 -62 -159 -58 -159 -58 -193 -41 -57 29 -128 1 -145 -57 -8 -27
-22 -34 -205 -101 l-197 -72 -30 29 c-58 56 -156 57 -212 1 -74 -75 -52 -203
44 -248 l36 -18 -1 -190 c0 -132 -4 -191 -12 -193 -6 -2 -23 -14 -38 -27 -37
-32 -39 -111 -3 -149 14 -14 30 -26 38 -26 14 0 15 -8 14 -215 0 -183 2 -172
-25 -179 -37 -9 -93 -67 -104 -108 -32 -116 53 -216 175 -206 46 4 60 10 93
43 l39 38 158 -57 159 -58 15 -40 c27 -77 107 -105 169 -60 l29 22 158 -59
158 -58 2 -57 c2 -66 24 -111 72 -143 111 -75 258 -2 266 132 l2 40 169 63
c160 60 171 62 199 49 56 -26 122 -3 144 51 11 26 26 35 114 68 56 20 130 47
163 59 l62 23 19 -24 c27 -33 90 -64 131 -64 45 0 105 33 134 72 34 49 33 142
-4 190 -14 19 -44 42 -65 52 l-40 18 0 199 0 200 26 14 c71 36 72 146 2 188
l-27 16 -1 181 -1 181 25 10 c131 49 156 221 44 294 -46 30 -84 37 -136 24
-39 -10 -105 -60 -105 -80 0 -16 -21 -10 -175 51 -147 57 -150 59 -156 92 -8
50 -27 78 -62 93 -41 17 -86 9 -118 -21 l-25 -24 -179 70 c-98 38 -180 71
-182 73 -2 2 4 18 13 36 21 41 14 113 -13 150 -47 62 -135 83 -200 47z m47
-285 c14 -4 43 -3 66 1 37 8 58 2 233 -66 186 -72 209 -82 200 -89 -2 -2 -67
-26 -144 -54 -77 -28 -147 -54 -156 -58 -12 -4 -19 2 -27 22 -24 71 -106 115
-182 98 -32 -7 -100 -68 -100 -90 0 -26 -19 -25 -112 11 -146 55 -173 70 -175
92 -1 17 23 29 165 80 169 62 187 66 232 53z m-593 -204 c29 -47 106 -61 154
-26 l29 20 142 -54 c117 -45 145 -60 156 -82 8 -14 12 -28 10 -29 -1 -2 -83
-32 -182 -69 l-178 -66 -30 22 c-39 29 -99 29 -130 0 l-23 -22 -170 62 c-165
61 -170 63 -170 91 0 27 4 30 185 96 102 38 188 69 192 69 4 1 11 -5 15 -12z
m1205 -47 c25 0 49 7 60 17 17 15 26 14 146 -32 208 -79 209 -79 214 -113 l4
-30 -160 -56 c-157 -54 -161 -55 -181 -37 -25 23 -56 38 -75 36 -8 -1 -24 -3
-36 -3 -11 -1 -30 -11 -43 -23 l-22 -21 -137 53 c-216 82 -221 85 -215 108 4
15 44 34 176 84 l172 64 28 -24 c20 -16 41 -23 69 -23z m-628 -182 c34 -9 56
-9 98 1 l53 12 185 -73 c136 -53 185 -77 182 -88 -2 -10 -53 -32 -140 -61
l-138 -46 -33 38 c-54 65 -138 86 -212 55 -37 -15 -82 -59 -93 -90 -4 -12 -12
-16 -24 -11 -9 4 -80 29 -157 57 -140 51 -164 62 -152 74 6 6 366 142 379 143
4 1 28 -4 52 -11z m-814 -70 c152 -56 172 -66 166 -76 -9 -16 24 -72 52 -86
l29 -15 1 -196 c1 -147 -2 -197 -11 -200 -6 -2 -23 -6 -37 -9 -14 -3 -36 -15
-48 -27 l-23 -21 -161 58 -161 59 -15 44 c-10 29 -24 49 -46 62 l-31 18 1 183
c2 224 0 208 23 208 11 0 32 13 48 30 34 36 31 36 213 -32z m1918 16 c15 -14
39 -28 55 -31 l27 -5 0 -189 c0 -156 -2 -189 -14 -189 -26 0 -66 -59 -66 -98
0 -43 17 -33 -202 -114 l-148 -55 -21 23 c-11 12 -34 28 -50 34 l-29 12 0 207
0 207 31 23 c17 13 37 37 44 54 12 29 25 35 176 88 90 32 165 58 167 58 2 1
15 -10 30 -25z m-1384 -212 l158 -58 18 -53 c19 -58 48 -94 91 -111 l29 -12 0
-191 0 -191 -32 -26 -31 -26 -180 65 -180 66 -14 47 c-12 43 -59 98 -84 98 -5
0 -9 86 -9 204 l0 204 33 21 c17 11 35 21 38 21 3 0 77 -26 163 -58z m866 26
c12 -4 15 -37 15 -212 l0 -208 -33 -13 c-54 -23 -92 -73 -96 -126 -1 -18 -9
-37 -17 -41 -8 -5 -79 -33 -159 -62 l-144 -53 -26 27 c-14 15 -31 29 -38 31
-9 3 -13 49 -13 193 0 103 2 190 4 192 2 3 13 6 25 9 72 13 128 75 141 155 l6
35 145 51 c115 40 148 48 160 38 8 -6 22 -13 30 -16z m-1449 -453 l144 -53 6
-54 c3 -29 11 -63 17 -75 16 -29 60 -59 99 -67 l32 -7 0 -185 c0 -101 -4 -184
-9 -184 -5 0 -22 -11 -38 -25 -16 -13 -32 -22 -35 -19 -3 3 -75 32 -159 63
l-153 56 -7 47 c-8 59 -37 100 -85 123 -21 10 -40 22 -43 26 -3 5 -5 90 -5
190 1 143 4 184 14 187 7 2 21 12 30 21 19 21 14 22 192 -44z m2049 -187 c0
-203 -1 -208 -20 -208 -12 0 -39 -17 -61 -38 -32 -29 -44 -50 -53 -92 l-12
-53 -153 -57 -152 -56 -39 38 -40 37 0 176 c0 145 2 175 14 175 18 0 73 45 86
71 6 10 13 38 16 61 4 24 7 43 8 44 9 5 292 108 293 107 2 -1 17 4 34 11 23
10 37 10 55 2 l24 -11 0 -207z m-1428 -40 c101 -38 172 -69 175 -78 14 -48 36
-82 58 -92 l25 -11 0 -196 0 -196 -45 -18 c-25 -11 -45 -23 -45 -28 0 -24 -38
-16 -193 42 -139 51 -167 65 -167 81 0 29 -30 75 -57 87 -23 11 -23 11 -23
200 l0 189 33 21 c17 11 38 29 45 40 7 12 15 21 18 21 4 0 83 -28 176 -62z
m813 -38 l30 -10 0 -173 0 -172 -27 -17 c-34 -21 -49 -49 -52 -95 l-2 -36
-161 -60 -162 -60 -30 30 c-16 17 -43 36 -60 43 -35 14 -32 -6 -32 215 0 204
-1 190 26 205 13 7 31 27 39 45 15 30 29 38 178 93 l163 60 30 -29 c17 -15 44
-33 60 -39z"/>
<path d="M413 1703 c-34 -7 -79 -57 -90 -100 -30 -119 35 -223 139 -223 100 0
160 72 151 180 -9 113 -83 166 -200 143z m104 -75 c60 -66 27 -188 -50 -188
-59 1 -88 43 -82 120 7 80 84 120 132 68z"/>
<path d="M2195 1584 c-14 -7 -25 -9 -25 -3 0 5 -13 9 -30 9 l-30 0 0 -115 0
-115 30 0 30 0 0 71 c0 82 11 109 45 109 33 0 38 -12 39 -99 l2 -76 29 0 30 0
1 85 c2 86 -13 139 -39 141 -6 0 -22 2 -35 3 -12 2 -34 -3 -47 -10z"/>
<path d="M988 1432 l-27 -3 1 -160 1 -159 29 0 c30 0 30 1 30 68 -1 36 1 42
13 32 35 -29 113 -12 135 30 15 28 19 99 8 131 -20 56 -77 81 -128 55 -21 -10
-30 -11 -32 -2 -2 6 -15 10 -30 8z m122 -71 c26 -50 4 -111 -40 -111 -32 0
-40 8 -47 51 -9 61 60 109 87 60z"/>
<path d="M1593 1424 c-46 -23 -72 -99 -51 -154 24 -64 86 -92 152 -70 33 10
66 42 66 62 0 13 -68 9 -72 -3 -5 -15 -54 -15 -73 1 -32 27 -16 36 60 37 41 1
79 4 84 7 20 13 -9 95 -40 114 -33 21 -91 23 -126 6z m105 -72 c2 -8 -13 -12
-48 -12 -56 0 -64 15 -19 37 19 10 28 10 43 -1 11 -7 22 -18 24 -24z"/>
<path d="M380 998 c-37 -19 -60 -72 -49 -110 11 -40 32 -54 102 -69 70 -14 92
-32 77 -60 -18 -33 -86 -29 -116 7 -28 34 -70 30 -66 -5 9 -83 167 -110 227
-40 56 67 22 128 -86 154 -72 18 -91 34 -69 60 21 26 100 17 100 -11 0 -8 3
-14 8 -15 52 -7 62 -5 62 12 0 10 -13 33 -28 50 -24 27 -37 33 -83 36 -32 2
-64 -1 -79 -9z"/>
<path d="M2091 958 c-13 -4 -17 -14 -14 -30 4 -20 10 -24 36 -23 57 3 57 3 57
-131 l0 -124 35 0 34 0 -1 119 c0 65 2 123 5 128 4 5 24 9 47 8 38 -2 40 0 40
27 0 15 -6 28 -12 29 -74 4 -213 3 -227 -3z"/>
<path d="M962 673 c-29 -82 -52 -151 -52 -155 0 -5 15 -8 34 -8 29 0 34 4 42
32 9 31 12 32 63 33 52 1 54 0 68 -32 11 -29 18 -33 49 -33 25 0 35 4 31 13
-2 6 -26 76 -53 154 l-49 143 -40 0 -40 0 -53 -147z m128 -40 c0 -2 -16 -3
-35 -3 -40 0 -40 0 -18 65 l16 49 18 -54 c10 -30 19 -56 19 -57z"/>
<path d="M1525 804 c-8 -3 -12 -206 -6 -301 1 -10 30 -13 111 -13 l110 0 0 30
0 30 -75 0 c-53 0 -75 4 -76 13 -1 6 -3 59 -4 117 -1 58 -3 110 -4 115 -1 10
-37 15 -56 9z"/>
</g>
</svg>
