<?xml version="1.0" standalone="no"?>
<!DOCTYPE svg PUBLIC "-//W3C//DTD SVG 20010904//EN"
 "http://www.w3.org/TR/2001/REC-SVG-20010904/DTD/svg10.dtd">
<svg version="1.0" xmlns="http://www.w3.org/2000/svg"
 width="16.000000pt" height="16.000000pt" viewBox="0 0 16.000000 16.000000"
 preserveAspectRatio="xMidYMid meet">
<metadata>
Created by potrace 1.11, written by Peter Selinger 2001-2013
</metadata>
<g transform="translate(0.000000,16.000000) scale(0.005970,-0.005970)"
fill="#000000" stroke="none">
<path d="M1280 2612 c-86 -39 -123 -142 -80 -223 12 -22 28 -14 -179 -90 -125
-46 -135 -48 -157 -34 -53 34 -134 8 -155 -50 -7 -19 -20 -37 -28 -40 -9 -4
-96 -36 -194 -72 l-178 -65 -27 25 c-95 90 -240 45 -262 -81 -11 -67 21 -126
89 -161 l34 -18 -1 -179 c0 -98 -1 -184 -1 -191 -1 -6 -10 -15 -22 -18 -28 -9
-59 -63 -59 -104 0 -27 9 -42 41 -73 l41 -40 0 -151 c0 -84 -1 -165 -1 -182
-1 -25 -9 -34 -50 -57 -72 -40 -102 -115 -76 -191 17 -49 41 -76 88 -97 67
-30 154 -10 194 46 l20 26 159 -57 c87 -32 160 -59 162 -60 2 -2 5 -15 8 -30
15 -86 116 -123 179 -65 20 18 24 17 180 -40 l160 -58 2 -55 c3 -107 70 -177
169 -177 94 0 161 65 169 163 2 21 5 40 7 42 1 1 77 30 168 63 158 58 166 59
194 45 55 -29 136 5 150 62 4 17 19 28 58 41 29 9 103 36 165 59 l111 42 22
-29 c62 -84 195 -77 263 13 21 29 33 95 23 133 -9 36 -63 94 -101 110 l-32 14
0 200 -1 200 24 10 c61 28 77 122 28 173 -15 16 -33 29 -40 29 -8 0 -12 48
-12 185 l0 184 33 11 c33 11 74 49 95 88 17 33 15 104 -4 141 -33 63 -81 93
-152 93 -52 0 -94 -21 -131 -66 l-28 -34 -157 62 -158 61 0 34 c0 24 -9 42
-34 67 -44 44 -99 47 -146 8 l-31 -27 -137 53 c-75 30 -156 61 -179 71 l-42
18 15 38 c32 75 0 164 -70 197 -34 16 -98 20 -126 8z m42 -297 c9 -2 33 1 54
6 36 11 48 8 129 -26 17 -7 92 -36 168 -66 75 -29 137 -56 137 -60 0 -4 -37
-21 -82 -37 -46 -17 -120 -44 -166 -61 -46 -17 -80 -27 -77 -21 3 5 -1 22 -9
37 -61 118 -212 116 -274 -3 l-17 -32 -130 51 c-195 76 -194 81 26 164 160 61
171 63 241 48z m-601 -209 c39 -49 112 -53 160 -10 14 13 33 8 161 -42 119
-46 148 -61 157 -82 9 -19 9 -27 0 -33 -7 -4 -88 -35 -180 -69 l-169 -62 -28
21 c-41 29 -95 30 -132 2 l-31 -22 -170 62 c-162 60 -169 63 -169 89 0 26 7
30 118 71 64 23 149 55 187 70 39 15 72 28 74 28 2 1 12 -10 22 -23z m1133
-15 c32 -30 103 -32 130 -5 15 14 31 10 183 -49 163 -62 168 -65 174 -96 6
-27 3 -34 -15 -40 -11 -4 -84 -30 -161 -56 l-140 -49 -29 27 c-39 36 -103 38
-142 4 l-27 -24 -176 69 c-97 38 -178 71 -180 73 -2 3 2 14 10 25 9 14 68 42
169 80 85 32 161 59 169 59 8 1 24 -8 35 -18z m-564 -204 c53 -15 82 -15 115
3 22 12 44 6 214 -60 123 -48 191 -79 194 -89 6 -24 -284 -124 -291 -101 -10
30 -72 79 -113 90 -77 21 -171 -16 -204 -80 -9 -16 -19 -30 -23 -30 -24 0
-322 117 -322 126 0 7 35 25 78 40 42 15 127 47 187 70 61 23 112 43 115 43 3
0 25 -5 50 -12z m-821 -67 c91 -33 167 -63 170 -65 3 -3 6 -15 8 -27 5 -32 30
-67 58 -80 l23 -10 1 -199 c0 -193 0 -199 -20 -199 -24 0 -56 -15 -84 -40 -19
-17 -26 -15 -182 42 -158 59 -161 61 -167 93 -7 34 -49 85 -72 85 -10 0 -12
42 -12 192 l1 193 38 17 c21 9 44 26 51 37 7 12 15 21 18 21 3 0 79 -27 169
-60z m1981 -20 c11 0 22 -5 26 -11 3 -6 7 -90 7 -186 0 -144 -3 -177 -15 -184
-46 -26 -62 -48 -67 -94 l-6 -48 -173 -64 -174 -64 -26 27 c-15 14 -37 30 -49
35 -23 8 -23 10 -23 217 l0 208 29 17 c17 10 35 33 42 52 14 39 13 38 223 108
l128 43 30 -28 c17 -15 38 -28 48 -28z m-1451 -174 c80 -30 154 -58 164 -61 9
-4 17 -16 17 -28 0 -53 75 -147 118 -147 9 0 12 -51 12 -197 l-1 -198 -34 -22
-35 -22 -180 66 c-149 55 -180 69 -180 86 0 34 -32 88 -68 112 l-35 24 0 198
c1 147 4 198 13 201 7 3 20 13 29 22 9 10 20 19 25 19 5 1 74 -23 155 -53z
m869 27 l29 -18 0 -205 0 -206 -41 -17 c-50 -21 -87 -72 -90 -123 l-2 -38
-159 -58 -159 -59 -28 28 c-15 15 -33 33 -40 39 -10 8 -13 55 -13 194 l0 183
46 13 c59 17 115 77 124 131 4 21 8 42 9 47 2 8 258 103 283 105 7 1 25 -7 41
-16z m-1440 -459 l152 -56 0 -47 c0 -28 8 -58 20 -79 22 -36 74 -72 106 -72
21 0 21 -3 22 -185 1 -180 1 -185 -21 -196 -12 -7 -27 -18 -35 -25 -10 -11
-27 -8 -95 17 -45 17 -119 44 -164 61 -82 30 -83 30 -83 65 0 59 -48 124 -106
143 l-33 11 1 182 0 182 31 27 c18 15 37 28 42 28 6 0 79 -25 163 -56z m2036
23 c16 -12 18 -32 18 -193 0 -98 -1 -189 -1 -200 -1 -14 -9 -24 -25 -28 -34
-8 -86 -54 -98 -85 -5 -14 -11 -41 -14 -60 -2 -19 -5 -36 -7 -37 -1 -1 -71
-27 -155 -58 l-153 -57 -25 31 c-14 16 -32 30 -40 30 -12 0 -14 32 -14 180 l0
179 35 17 c42 19 77 74 80 121 1 19 6 38 11 43 13 13 326 128 350 129 11 1 28
-5 38 -12z m-1397 -257 c155 -57 158 -59 165 -92 4 -20 20 -45 42 -64 l36 -32
-2 -192 -3 -193 -30 -10 c-16 -5 -40 -19 -52 -30 -27 -24 -29 -24 -213 45
-140 52 -144 54 -151 86 -7 36 -44 82 -66 82 -15 0 -15 6 -15 230 1 118 4 156
14 159 7 2 29 21 48 42 22 23 41 36 52 33 9 -3 88 -31 175 -64z m746 1 c15
-16 40 -32 55 -36 l29 -6 0 -174 0 -175 -33 -19 c-24 -14 -36 -31 -44 -61 -6
-23 -9 -48 -6 -55 3 -8 -47 -32 -157 -72 l-162 -60 -38 34 c-22 19 -51 39 -66
44 l-27 9 2 193 c1 105 2 195 3 198 0 3 12 11 26 17 15 7 32 27 40 45 12 30
24 36 167 89 84 31 160 57 168 57 8 1 27 -12 43 -28z"/>
<path d="M394 1696 c-50 -22 -77 -70 -80 -140 -4 -109 44 -169 140 -173 94 -3
144 48 151 152 8 129 -98 210 -211 161z m120 -62 c25 -26 31 -53 26 -114 -6
-75 -68 -111 -125 -74 -22 14 -41 64 -38 102 0 6 1 23 2 36 0 12 12 35 26 50
32 34 74 34 109 0z"/>
<path d="M2070 1505 l0 -155 30 0 30 0 1 78 c1 42 0 91 -1 107 -2 38 9 28 51
-50 67 -123 76 -135 112 -135 l32 0 0 155 0 155 -32 0 -31 0 0 -87 c0 -116 0
-119 -11 -107 -5 5 -23 36 -41 69 -66 121 -69 125 -106 125 l-34 0 0 -155z"/>
<path d="M924 1315 l0 -155 33 0 33 0 0 55 0 55 50 0 c27 0 60 5 73 11 70 32
58 168 -16 183 -16 3 -62 6 -101 6 l-72 0 0 -155z m153 97 c19 -12 22 -55 5
-74 -9 -11 -29 -18 -54 -18 l-38 0 0 50 0 50 38 0 c20 0 43 -4 49 -8z"/>
<path d="M1515 1278 l0 -153 118 -3 117 -3 0 31 0 30 -83 0 c-46 0 -86 2 -88
5 -3 2 -3 20 -1 40 l4 35 74 0 c72 0 74 1 74 25 0 24 -2 25 -74 25 -69 0 -74
2 -78 23 -8 43 0 47 83 47 78 0 79 0 79 25 l0 25 -113 0 -113 0 1 -152z"/>
<path d="M362 984 c-52 -48 -50 -119 5 -147 15 -8 52 -20 81 -27 58 -13 70
-27 52 -59 -20 -38 -120 -21 -120 20 0 5 -13 9 -30 9 -32 0 -35 -6 -21 -42 19
-50 120 -74 184 -43 82 38 71 152 -15 169 -56 11 -118 38 -118 52 0 48 101 60
115 13 4 -13 16 -19 36 -19 32 0 35 7 18 43 -15 33 -44 48 -104 54 -47 5 -55
3 -83 -23z"/>
<path d="M2075 943 c2 -10 4 -21 4 -25 1 -5 21 -8 46 -8 l45 0 0 -131 0 -130
33 3 32 3 0 128 0 127 45 0 c41 0 46 2 48 25 l2 25 -129 0 c-118 0 -129 -2
-126 -17z"/>
<path d="M1012 793 c-6 -16 -28 -77 -50 -138 -22 -60 -43 -118 -47 -127 -6
-15 -1 -18 28 -18 32 0 37 4 47 35 l12 36 56 -3 c54 -3 57 -4 66 -35 8 -29 13
-33 42 -33 19 0 34 3 34 7 0 4 -24 74 -52 155 l-53 148 -37 0 c-30 0 -38 -4
-46 -27z m65 -101 c19 -56 17 -62 -23 -62 -27 0 -35 4 -31 14 3 8 11 32 18 55
14 46 17 46 36 -7z"/>
<path d="M1523 645 l-2 -155 110 0 109 0 0 25 c0 24 -2 25 -75 25 -71 0 -75 1
-76 23 0 12 0 70 0 130 l1 107 -33 0 -33 0 -1 -155z"/>
</g>
</svg>
